# xmcd
#
# Track frame offsets: 
#        150
#        49614
#        81462
#        118514
#        156423
#        174963
#
# Disc length: 2638 seconds
#
# Revision: 4
# Processed by: cddbd v1.5.2PL0 Copyright (c) Steve Scherf et al.
# Submitted via: ExactAudioCopy v1.0b3
#
DISCID=450a4c06
DTITLE=Cannonball Adderley - Somethin' Else
DYEAR=1958
DGENRE=Jazz
TTITLE0=Autumn Leaves
TTITLE1=Love For Sale
TTITLE2=Somethin' Else
TTITLE3=One For Daddy-O
TTITLE4=Dancing In The Dark
TTITLE5=Bangoon
EXTD=
EXTT0=
EXTT1=
EXTT2=
EXTT3=
EXTT4=
EXTT5=
PLAYORDER=
